<svg width="197" height="129" viewBox="0 0 197 129" fill="none" xmlns="http://www.w3.org/2000/svg"><path d="M2.849 119.884V96.216h4.579v23.668zm3.367 0v-4.074h12.052v4.074zm22.084.336q-2.458 0-4.444-1.111a8.9 8.9 0 0 1-3.13-3.063q-1.146-1.953-1.146-4.343t1.145-4.276a8.3 8.3 0 0 1 3.131-3.03q1.986-1.145 4.41-1.145 2.492 0 4.445 1.145a8.3 8.3 0 0 1 3.13 3.03q1.145 1.885 1.145 4.276t-1.144 4.343a8.54 8.54 0 0 1-3.131 3.063q-1.953 1.111-4.41 1.111m-.034-4.107q1.245 0 2.189-.539a3.8 3.8 0 0 0 1.481-1.548q.54-1.01.539-2.29 0-1.279-.539-2.255a3.85 3.85 0 0 0-1.481-1.515q-.943-.573-2.188-.573-1.212 0-2.155.573a3.85 3.85 0 0 0-1.482 1.515q-.538.976-.538 2.255 0 1.28.538 2.29.54.976 1.482 1.548.942.54 2.155.539m11.56 3.771v-16.261h4.41v16.261zm4.41-8.989-1.717-1.145q.303-2.997 1.75-4.713 1.448-1.752 4.175-1.751 1.179 0 2.121.404.943.37 1.717 1.246l-2.76 3.164a2.3 2.3 0 0 0-.91-.606 3.2 3.2 0 0 0-1.178-.202q-1.413 0-2.323.909-.875.876-.875 2.694m16.913 9.325q-2.559 0-4.546-1.077a8.55 8.55 0 0 1-3.164-3.03q-1.145-1.918-1.145-4.377 0-2.424 1.111-4.309a8.36 8.36 0 0 1 3.097-3.03q1.953-1.145 4.343-1.145 2.357 0 4.142 1.078a7.3 7.3 0 0 1 2.828 2.895q1.043 1.818 1.043 4.141 0 .438-.067.909a7 7 0 0 1-.168 1.01l-13.67.034v-3.3l11.616-.033-1.785 1.38q-.067-1.448-.538-2.424-.438-.977-1.313-1.481-.842-.539-2.087-.539-1.314 0-2.29.606-.976.572-1.515 1.65-.505 1.043-.505 2.491 0 1.482.539 2.592.572 1.078 1.616 1.684 1.043.572 2.424.572 1.245 0 2.255-.404a4.9 4.9 0 0 0 1.751-1.279l2.593 2.592a7.5 7.5 0 0 1-2.896 2.087q-1.683.707-3.67.707m10.437-.336v-16.261h4.41v16.261zm10.605 0v-9.595q0-1.414-.91-2.189-.874-.808-2.187-.808-.876 0-1.583.371a2.54 2.54 0 0 0-1.11 1.01q-.405.673-.405 1.616l-1.717-.842q0-1.885.808-3.266a5.7 5.7 0 0 1 2.256-2.121q1.414-.774 3.198-.774 1.684 0 3.064.774a5.5 5.5 0 0 1 2.188 2.121q.808 1.347.808 3.266v10.437zm10.605 0v-9.595q0-1.414-.909-2.189-.876-.808-2.188-.808a3.5 3.5 0 0 0-1.583.371 2.54 2.54 0 0 0-1.11 1.01q-.405.673-.405 1.616l-2.525-.606q.135-1.953 1.044-3.367a6.14 6.14 0 0 1 2.39-2.222q1.482-.808 3.3-.808t3.265.774a5.57 5.57 0 0 1 2.29 2.155q.841 1.414.842 3.367v10.302zm15.032 0V96.216h4.579v23.668zm17.988.336q-1.75 0-3.165-.707-1.414-.74-2.256-1.986t-.909-2.862v-5.757q.068-1.616.909-2.861a6.3 6.3 0 0 1 2.256-2.02q1.414-.741 3.165-.741 2.256 0 4.04 1.111t2.794 3.03q1.044 1.919 1.044 4.343 0 2.39-1.044 4.309-1.01 1.92-2.794 3.03-1.784 1.111-4.04 1.111m-.774-4.073q1.212 0 2.154-.539a3.84 3.84 0 0 0 1.448-1.549q.539-1.01.539-2.323 0-1.279-.539-2.255a3.6 3.6 0 0 0-1.448-1.549q-.942-.573-2.154-.572-1.179 0-2.122.572a3.8 3.8 0 0 0-1.481 1.549q-.505.976-.505 2.255 0 1.314.505 2.323a4.2 4.2 0 0 0 1.448 1.549q.942.539 2.155.539m-8.249 10.538v-23.062h4.41v4.275l-.74 3.939.707 3.939v10.909zm25.381-6.431q-1.38 0-2.727-.37a10.6 10.6 0 0 1-2.424-1.01 8 8 0 0 1-1.919-1.616l2.626-2.66a5.44 5.44 0 0 0 1.953 1.414q1.111.471 2.458.471 1.077 0 1.616-.303.572-.303.572-.909 0-.672-.606-1.043-.571-.37-1.515-.606-.943-.27-1.986-.573a12.5 12.5 0 0 1-1.953-.841 4.56 4.56 0 0 1-1.549-1.448q-.572-.942-.572-2.424 0-1.548.741-2.693.774-1.145 2.188-1.785t3.333-.639q2.02 0 3.636.707a6.67 6.67 0 0 1 2.727 2.121l-2.66 2.659q-.74-.909-1.683-1.313a4.8 4.8 0 0 0-1.986-.404q-.977 0-1.515.303-.505.303-.505.842 0 .606.572.943.606.336 1.549.606.942.236 1.952.572a7.7 7.7 0 0 1 1.953.875 4.45 4.45 0 0 1 1.515 1.515q.606.944.606 2.424 0 2.39-1.717 3.805-1.717 1.38-4.68 1.38m16.307-.034q-2.155 0-3.838-.909a6.67 6.67 0 0 1-2.593-2.525q-.942-1.616-.943-3.737v-9.426h4.445v9.325q0 1.01.336 1.751a2.35 2.35 0 0 0 1.01 1.077q.674.37 1.583.371 1.38 0 2.154-.842.775-.842.775-2.357v-9.325h4.41v9.426q0 2.156-.943 3.771-.909 1.616-2.592 2.525-1.65.876-3.804.875m10.851-.336v-16.261h4.411v16.261zm10.605 0v-9.595q0-1.414-.909-2.189-.875-.808-2.188-.808-.876 0-1.582.371a2.54 2.54 0 0 0-1.111 1.01q-.404.673-.404 1.616l-1.717-.842q0-1.885.808-3.266a5.7 5.7 0 0 1 2.255-2.121q1.414-.774 3.199-.774 1.683 0 3.063.774a5.5 5.5 0 0 1 2.189 2.121q.808 1.347.808 3.266v10.437zm10.605 0v-9.595q0-1.414-.909-2.189-.875-.808-2.188-.808-.842 0-1.582.371a2.54 2.54 0 0 0-1.111 1.01q-.404.673-.404 1.616l-2.525-.606q.134-1.953 1.043-3.367a6.14 6.14 0 0 1 2.391-2.222q1.48-.808 3.299-.808t3.266.774a5.57 5.57 0 0 1 2.289 2.155q.842 1.414.842 3.367v10.302zM75.37 23.164C72.352 13.871 77.438 3.89 86.73.871c9.293-3.02 19.274 2.066 22.294 11.359l13.482 41.494c3.019 9.293-2.066 19.275-11.359 22.294s-19.275-2.066-22.294-11.36zm47.066 0c-3.02-9.293 2.066-19.274 11.359-22.293 9.293-3.02 19.274 2.066 22.294 11.359l13.482 41.494c3.02 9.293-2.066 19.275-11.359 22.294s-19.274-2.066-22.294-11.36zm-95.566 0C23.852 13.871 28.938 3.89 38.23.871c9.293-3.02 19.274 2.066 22.294 11.359l13.482 41.494c3.02 9.293-2.066 19.275-11.36 22.294-9.292 3.02-19.273-2.066-22.293-11.36z" fill="#000"/></svg>