<svg width="21" height="22" viewBox="0 0 21 22" fill="none" xmlns="http://www.w3.org/2000/svg"><path d="M20.124 7.504c-.109.061-2.707 1.354-2.707 4.222.123 3.27 3.279 4.417 3.333 4.417-.054.06-.477 1.562-1.728 3.135C18.03 20.634 16.928 22 15.254 22c-1.592 0-2.163-.903-4-.903-1.973 0-2.53.903-4.04.903-1.674 0-2.858-1.44-3.905-2.782C1.949 17.46.793 14.703.752 12.055c-.028-1.403.272-2.782 1.033-3.953C2.86 6.466 4.778 5.356 6.873 5.319c1.605-.048 3.034.989 4.014.989.938 0 2.694-.989 4.68-.989.857.001 3.142.233 4.557 2.185m-9.373-2.465c-.286-1.281.503-2.562 1.238-3.38C12.927.671 14.41 0 15.689 0c.081 1.281-.436 2.538-1.36 3.453-.83.989-2.259 1.733-3.578 1.586" fill="#111827"/></svg>