<svg width="23" height="22" viewBox="0 0 23 22" fill="none" xmlns="http://www.w3.org/2000/svg"><path d="M20.876 11.214c0-.792-.066-1.37-.207-1.968h-9.221v3.572h5.412c-.109.888-.698 2.224-2.008 3.123l-.018.12 2.916 2.213.201.02c1.856-1.68 2.925-4.15 2.925-7.08" fill="#4285F4"/><path d="M11.447 20.625c2.652 0 4.878-.856 6.504-2.331l-3.1-2.353c-.829.567-1.942.962-3.404.962a5.9 5.9 0 0 1-5.587-4l-.116.01-3.031 2.3-.04.107c1.615 3.145 4.933 5.305 8.774 5.305" fill="#DEE33E"/><path d="M11.447 20.625c2.652 0 4.878-.856 6.504-2.331l-3.1-2.353c-.829.567-1.942.962-3.404.962a5.9 5.9 0 0 1-5.587-4l-.116.01-3.031 2.3-.04.107c1.615 3.145 4.933 5.305 8.774 5.305" fill="#000" fill-opacity=".2"/><path d="M5.86 12.904A5.8 5.8 0 0 1 5.533 11c0-.663.12-1.305.316-1.904l-.005-.127-3.07-2.336-.1.046A9.5 9.5 0 0 0 1.626 11a9.5 9.5 0 0 0 1.048 4.32z" fill="#FDCF24"/><path d="M11.447 5.097c1.844 0 3.088.78 3.798 1.433l2.771-2.653c-1.702-1.55-3.917-2.502-6.57-2.502-3.84 0-7.158 2.16-8.773 5.304L5.85 9.096c.796-2.32 3-4 5.598-4" fill="#EB4335"/></svg>