<svg width="15" height="15" viewBox="0 0 15 15" fill="none" xmlns="http://www.w3.org/2000/svg"><path d="M5.198 13.875a.53.53 0 0 1-.531.531h-2.48c-.998 0-1.593-.596-1.593-1.594v-2.479a.531.531 0 0 1 1.062 0v2.48c0 .417.114.53.532.53h2.479c.293 0 .53.239.53.532M1.125 5.198a.53.53 0 0 0 .531-.531v-2.48c0-.417.114-.53.532-.53h2.479a.531.531 0 0 0 0-1.063h-2.48C1.19.594.595 1.189.595 2.188v2.479c0 .293.238.53.531.53M12.813.594h-2.48a.531.531 0 0 0 0 1.062h2.48c.417 0 .53.114.53.532v2.479a.531.531 0 0 0 1.063 0v-2.48c0-.998-.596-1.593-1.594-1.593m1.062 9.208a.53.53 0 0 0-.531.531v2.48c0 .417-.114.53-.531.53h-2.48a.531.531 0 0 0 0 1.063h2.48c.997 0 1.593-.596 1.593-1.594v-2.479a.53.53 0 0 0-.531-.53M8.74 6.792h1.77q.532 0 .532-.532V4.49q0-.532-.532-.532H8.74q-.532 0-.532.532v1.77q0 .532.532.532M6.26 8.208H4.49q-.532 0-.532.532v1.77q0 .532.532.532h1.77q.532 0 .532-.532V8.74q0-.532-.532-.532m4.782 2.302V8.74q0-.532-.532-.532H8.74q-.532 0-.532.532v1.77q0 .532.532.532h1.77q.532 0 .532-.532M6.26 3.958H4.49q-.532 0-.532.532v1.77q0 .532.532.532h1.77q.532 0 .532-.532V4.49q0-.532-.532-.532" fill="#25314C"/></svg>